<?xml version="1.0" encoding="UTF-8" standalone="no"?>
<!-- Created with Inkscape (http://www.inkscape.org/) -->

<svg
   xmlns:dc="http://purl.org/dc/elements/1.1/"
   xmlns:cc="http://creativecommons.org/ns#"
   xmlns:rdf="http://www.w3.org/1999/02/22-rdf-syntax-ns#"
   xmlns:svg="http://www.w3.org/2000/svg"
   xmlns="http://www.w3.org/2000/svg"
   xmlns:sodipodi="http://sodipodi.sourceforge.net/DTD/sodipodi-0.dtd"
   xmlns:inkscape="http://www.inkscape.org/namespaces/inkscape"
   width="77.399002"
   height="52.799999"
   id="svg3046"
   version="1.1"
   inkscape:version="0.48.1 r9760"
   sodipodi:docname="redmine-logo.svg">
  <defs
     id="defs3048" />
  <sodipodi:namedview
     id="base"
     pagecolor="#ffffff"
     bordercolor="#666666"
     borderopacity="1.0"
     inkscape:pageopacity="0.0"
     inkscape:pageshadow="2"
     inkscape:zoom="0.35"
     inkscape:cx="38.6995"
     inkscape:cy="369.25714"
     inkscape:document-units="px"
     inkscape:current-layer="layer1"
     showgrid="false"
     inkscape:window-width="1600"
     inkscape:window-height="875"
     inkscape:window-x="0"
     inkscape:window-y="1"
     inkscape:window-maximized="1"
     borderlayer="true"
     fit-margin-top="0"
     fit-margin-left="0"
     fit-margin-right="0"
     fit-margin-bottom="0" />
  <metadata
     id="metadata3051">
    <rdf:RDF>
      <cc:Work
         rdf:about="">
        <dc:format>image/svg+xml</dc:format>
        <dc:type
           rdf:resource="http://purl.org/dc/dcmitype/StillImage" />
        <dc:title></dc:title>
      </cc:Work>
    </rdf:RDF>
  </metadata>
  <g
     inkscape:label="Layer 1"
     inkscape:groupmode="layer"
     id="layer1"
     transform="translate(-336.3005,-505.96218)">
    <polygon
       style="fill:#4d4d4d;fill-rule:evenodd"
       transform="translate(336.3005,489.21218)"
       clip-rule="evenodd"
       points="0,69.55 16.8,69.55 18,55.149 2.399,51.55 "
       id="polygon5" />
    <polygon
       style="fill:#4d4d4d;fill-rule:evenodd"
       transform="translate(336.3005,489.21218)"
       clip-rule="evenodd"
       points="3,49.149 18,52.75 21.601,40.149 9,33.55 "
       id="polygon7" />
    <polygon
       style="fill:#4d4d4d;fill-rule:evenodd"
       transform="translate(336.3005,489.21218)"
       clip-rule="evenodd"
       points="10.2,31.149 22.2,37.75 31.8,31.149 22.8,20.949 "
       id="polygon9" />
    <polygon
       style="fill:#4d4d4d;fill-rule:evenodd"
       transform="translate(336.3005,489.21218)"
       clip-rule="evenodd"
       points="77.399,69.55 60.601,69.55 59.399,55.149 75,51.55 "
       id="polygon11" />
    <polygon
       style="fill:#4d4d4d;fill-rule:evenodd"
       transform="translate(336.3005,489.21218)"
       clip-rule="evenodd"
       points="74.399,49.149 59.399,52.75 55.8,40.149 68.399,33.55 "
       id="polygon13" />
    <polygon
       style="fill:#4d4d4d;fill-rule:evenodd"
       transform="translate(336.3005,489.21218)"
       clip-rule="evenodd"
       points="67.2,31.149 55.2,37.75 45.601,31.149 54.601,20.949 "
       id="polygon15" />
    <polygon
       style="fill:#4d4d4d;fill-rule:evenodd"
       transform="translate(336.3005,489.21218)"
       clip-rule="evenodd"
       points="43.2,29.949 51,19.149 43.2,16.75 34.589,16.75 25.8,19.149 34.8,29.949 "
       id="polygon17" />
    <polygon
       style="fill:#9c0000;fill-rule:evenodd"
       transform="translate(336.3005,489.21218)"
       clip-rule="evenodd"
       points="0,69.55 16.8,69.55 18,55.149 2.399,51.55 "
       id="polygon19" />
    <polygon
       style="fill:#b50808;fill-rule:evenodd"
       transform="translate(336.3005,489.21218)"
       clip-rule="evenodd"
       points="3,49.149 18,52.75 21.601,40.149 9,33.55 "
       id="polygon21" />
    <polygon
       style="fill:#c61818;fill-rule:evenodd"
       transform="translate(336.3005,489.21218)"
       clip-rule="evenodd"
       points="10.2,31.149 22.2,37.75 31.8,31.149 22.8,20.949 "
       id="polygon23" />
    <polygon
       style="fill:#9c0000;fill-rule:evenodd"
       transform="translate(336.3005,489.21218)"
       clip-rule="evenodd"
       points="77.399,69.55 60.601,69.55 59.399,55.149 75,51.55 "
       id="polygon25" />
    <polygon
       style="fill:#b50808;fill-rule:evenodd"
       transform="translate(336.3005,489.21218)"
       clip-rule="evenodd"
       points="74.399,49.149 59.399,52.75 55.8,40.149 68.399,33.55 "
       id="polygon27" />
    <polygon
       style="fill:#c61818;fill-rule:evenodd"
       transform="translate(336.3005,489.21218)"
       clip-rule="evenodd"
       points="67.2,31.149 55.2,37.75 45.601,31.149 54.601,20.949 "
       id="polygon29" />
    <polygon
       style="fill:#ce3129;fill-rule:evenodd"
       transform="translate(336.3005,489.21218)"
       clip-rule="evenodd"
       points="43.2,29.949 51,19.149 43.2,16.75 34.589,16.75 25.8,19.149 34.8,29.949 "
       id="polygon31" />
  </g>
</svg>
